<svg width="97" height="17" viewBox="0 0 97 17" fill="none" xmlns="http://www.w3.org/2000/svg">
<path d="M10.3383 3.54447V0.869116H0.0548096V3.54447H10.3383Z" fill="#2490EF"/>
<path d="M3.31541 9.81505H9.83664V7.13966H0.0548096V16.169H3.31541V9.81505Z" fill="#2490EF"/>
<path d="M16.2848 16H22.81C26.2404 16 28.0675 14.2102 28.0675 11.7791C28.0675 9.51953 26.4493 8.15483 24.7117 8.0728V7.92365C26.3001 7.56569 27.4709 6.43963 27.4709 4.6424C27.4709 2.35298 25.7706 0.72727 22.3999 0.72727H16.2848V16ZM19.5139 13.3601V9.30326H22.2209C23.7721 9.30326 24.7341 10.1982 24.7341 11.4584C24.7341 12.6069 23.951 13.3601 22.1463 13.3601H19.5139ZM19.5139 7.11825V3.33735H21.9674C23.3992 3.33735 24.212 4.07564 24.212 5.17933C24.212 6.38743 23.2277 7.11825 21.9077 7.11825H19.5139Z" fill="#505A62"/>
<path d="M46.3488 8.36363C46.3488 10.0291 46.0331 11.446 45.4017 12.6143C44.7753 13.7827 43.9202 14.6751 42.8364 15.2915C41.7575 15.9031 40.5445 16.2088 39.1972 16.2088C37.8399 16.2088 36.6219 15.9006 35.543 15.2841C34.4642 14.6676 33.6116 13.7752 32.9852 12.6069C32.3587 11.4386 32.0455 10.0241 32.0455 8.36363C32.0455 6.69815 32.3587 5.28125 32.9852 4.11292C33.6116 2.9446 34.4642 2.05468 35.543 1.44318C36.6219 0.826702 37.8399 0.518463 39.1972 0.518463C40.5445 0.518463 41.7575 0.826702 42.8364 1.44318C43.9202 2.05468 44.7753 2.9446 45.4017 4.11292C46.0331 5.28125 46.3488 6.69815 46.3488 8.36363ZM43.075 8.36363C43.075 7.2848 42.9134 6.375 42.5903 5.63423C42.2721 4.89346 41.8222 4.33167 41.2405 3.94886C40.6588 3.56605 39.9777 3.37464 39.1972 3.37464C38.4166 3.37464 37.7355 3.56605 37.1538 3.94886C36.5722 4.33167 36.1197 4.89346 35.7966 5.63423C35.4784 6.375 35.3193 7.2848 35.3193 8.36363C35.3193 9.44247 35.4784 10.3523 35.7966 11.093C36.1197 11.8338 36.5722 12.3956 37.1538 12.7784C37.7355 13.1612 38.4166 13.3526 39.1972 13.3526C39.9777 13.3526 40.6588 13.1612 41.2405 12.7784C41.8222 12.3956 42.2721 11.8338 42.5903 11.093C42.9134 10.3523 43.075 9.44247 43.075 8.36363Z" fill="#505A62"/>
<path d="M64.3488 8.36363C64.3488 10.0291 64.0331 11.446 63.4017 12.6143C62.7753 13.7827 61.9202 14.6751 60.8364 15.2915C59.7575 15.9031 58.5445 16.2088 57.1972 16.2088C55.8399 16.2088 54.6219 15.9006 53.543 15.2841C52.4642 14.6676 51.6116 13.7752 50.9852 12.6069C50.3587 11.4386 50.0455 10.0241 50.0455 8.36363C50.0455 6.69815 50.3587 5.28125 50.9852 4.11292C51.6116 2.9446 52.4642 2.05468 53.543 1.44318C54.6219 0.826702 55.8399 0.518463 57.1972 0.518463C58.5445 0.518463 59.7575 0.826702 60.8364 1.44318C61.9202 2.05468 62.7753 2.9446 63.4017 4.11292C64.0331 5.28125 64.3488 6.69815 64.3488 8.36363ZM61.075 8.36363C61.075 7.2848 60.9134 6.375 60.5903 5.63423C60.2721 4.89346 59.8222 4.33167 59.2405 3.94886C58.6588 3.56605 57.9777 3.37464 57.1972 3.37464C56.4166 3.37464 55.7355 3.56605 55.1538 3.94886C54.5722 4.33167 54.1197 4.89346 53.7966 5.63423C53.4784 6.375 53.3193 7.2848 53.3193 8.36363C53.3193 9.44247 53.4784 10.3523 53.7966 11.093C54.1197 11.8338 54.5722 12.3956 55.1538 12.7784C55.7355 13.1612 56.4166 13.3526 57.1972 13.3526C57.9777 13.3526 58.6588 13.1612 59.2405 12.7784C59.8222 12.3956 60.2721 11.8338 60.5903 11.093C60.9134 10.3523 61.075 9.44247 61.075 8.36363Z" fill="#505A62"/>
<path d="M68.3875 16V0.72727H71.6165V7.46129H71.8179L77.314 0.72727H81.1843L75.5167 7.56569L81.2515 16H77.3885L73.2049 9.72088L71.6165 11.6598V16H68.3875Z" fill="#505A62"/>
<path d="M92.8318 5.11967C92.7722 4.51811 92.5161 4.05078 92.0637 3.71768C91.6113 3.38459 90.9973 3.21804 90.2217 3.21804C89.6947 3.21804 89.2498 3.29261 88.8868 3.44176C88.5239 3.58594 88.2455 3.78728 88.0516 4.04581C87.8627 4.30433 87.7682 4.59765 87.7682 4.92578C87.7583 5.19922 87.8155 5.43785 87.9398 5.64169C88.069 5.84552 88.2455 6.02201 88.4692 6.17116C88.693 6.31534 88.9515 6.44211 89.2448 6.55149C89.5381 6.65589 89.8513 6.74538 90.1844 6.81995L91.5566 7.14808C92.2228 7.29723 92.8343 7.49609 93.3911 7.74467C93.9479 7.99325 94.4302 8.299 94.8378 8.66193C95.2455 9.02486 95.5612 9.45241 95.7849 9.9446C96.0136 10.4368 96.1305 11.0011 96.1354 11.6374C96.1305 12.5721 95.8918 13.3825 95.4195 14.0685C94.9522 14.7496 94.2761 15.2791 93.3911 15.657C92.5111 16.0298 91.4497 16.2163 90.2068 16.2163C88.9739 16.2163 87.9 16.0273 86.9852 15.6495C86.0754 15.2717 85.3645 14.7124 84.8524 13.9716C84.3453 13.2258 84.0793 12.3036 84.0545 11.2049H87.1791C87.2139 11.717 87.3606 12.1445 87.6191 12.4876C87.8826 12.8256 88.2331 13.0817 88.6706 13.2557C89.1131 13.4247 89.6127 13.5092 90.1695 13.5092C90.7164 13.5092 91.1912 13.4297 91.5939 13.2706C92.0016 13.1115 92.3172 12.8903 92.541 12.6069C92.7647 12.3235 92.8766 11.9979 92.8766 11.63C92.8766 11.2869 92.7746 10.9986 92.5708 10.7649C92.3719 10.5312 92.0786 10.3324 91.6908 10.1683C91.308 10.0043 90.8382 9.85511 90.2814 9.72088L88.6184 9.30326C87.3307 8.99005 86.3141 8.50035 85.5683 7.83416C84.8226 7.16797 84.4522 6.27059 84.4572 5.14204C84.4522 4.21733 84.6983 3.40944 85.1954 2.71839C85.6976 2.02734 86.3861 1.48792 87.2611 1.10014C88.1361 0.712355 89.1305 0.518463 90.2441 0.518463C91.3776 0.518463 92.367 0.712355 93.2121 1.10014C94.0623 1.48792 94.7235 2.02734 95.1958 2.71839C95.6681 3.40944 95.9117 4.20987 95.9266 5.11967H92.8318Z" fill="#505A62"/>
</svg>
