<svg xmlns="http://www.w3.org/2000/svg" width="80" height="18" fill="none" viewBox="0 0 80 18"><path fill="#2490EF" fill-rule="evenodd" d="M0 0H11.4599V3.01443H0V0ZM0 17.1391V7.69057H10.6999V10.7101H3.65783V17.1391H0Z" clip-rule="evenodd"/><path fill="#505A62" d="M15.1886 17.1391H22.0506C25.9327 17.1391 27.8365 15.1608 27.8365 12.5203C27.8365 9.95434 26.0155 8.44785 24.211 8.3568V8.19124C25.8665 7.80222 27.1743 6.64337 27.1743 4.58229C27.1743 2.05766 25.3533 0.186971 21.6781 0.186971H15.1886V17.1391ZM18.2595 14.5731V9.60669H21.645C23.5405 9.60669 24.7159 10.7655 24.7159 12.2803C24.7159 13.6295 23.7888 14.5731 21.5622 14.5731H18.2595ZM18.2595 7.3966V2.71988H21.3636C23.168 2.71988 24.1034 3.67175 24.1034 4.9796C24.1034 6.46954 22.8949 7.3966 21.2974 7.3966H18.2595ZM35.3388 17.3874C39.0635 17.3874 41.4308 14.7635 41.4308 10.8317C41.4308 6.89168 39.0635 4.25945 35.3388 4.25945C31.6139 4.25945 29.2466 6.89168 29.2466 10.8317C29.2466 14.7635 31.6139 17.3874 35.3388 17.3874ZM35.3553 14.987C33.2942 14.987 32.2844 13.1494 32.2844 10.8235C32.2844 8.49751 33.2942 6.63507 35.3553 6.63507C37.3832 6.63507 38.393 8.49751 38.393 10.8235C38.393 13.1494 37.3832 14.987 35.3553 14.987ZM48.9374 17.3874C52.662 17.3874 55.0296 14.7635 55.0296 10.8317C55.0296 6.89168 52.662 4.25945 48.9374 4.25945C45.2124 4.25945 42.8451 6.89168 42.8451 10.8317C42.8451 14.7635 45.2124 17.3874 48.9374 17.3874ZM48.9538 14.987C46.8927 14.987 45.8828 13.1494 45.8828 10.8235C45.8828 8.49751 46.8927 6.63507 48.9538 6.63507C50.9817 6.63507 51.9916 8.49751 51.9916 10.8235C51.9916 13.1494 50.9817 14.987 48.9538 14.987ZM56.99 17.1391H59.9863V12.868L61.0791 11.7009L64.9693 17.1391H68.5535L63.3387 9.91293L68.2638 4.42502H64.7626L60.1933 9.53217H59.9863V0.186971H56.99V17.1391ZM79.7268 7.78566C79.3131 5.63353 77.5913 4.25945 74.6115 4.25945C71.5487 4.25945 69.4629 5.76595 69.4711 8.11675C69.4629 9.9709 70.605 11.1959 73.047 11.7009L75.2158 12.1561C76.3826 12.4127 76.929 12.8846 76.929 13.6047C76.929 14.4738 75.9853 15.1277 74.5617 15.1277C73.1875 15.1277 72.2936 14.5318 72.0372 13.3895L69.1153 13.6709C69.4875 16.0051 71.4493 17.3874 74.57 17.3874C77.7486 17.3874 79.9918 15.7402 80 13.3315C79.9918 11.5188 78.8246 10.4096 76.4241 9.88812L74.2553 9.42457C72.964 9.13485 72.4509 8.6879 72.4591 7.95119C72.4509 7.09036 73.4028 6.49436 74.6529 6.49436C76.035 6.49436 76.7634 7.24763 76.9952 8.08364L79.7268 7.78566Z"/></svg>